<?xml version="1.0" encoding="utf-8"?>
<!-- Generator: Adobe Illustrator 25.4.1, SVG Export Plug-In . SVG Version: 6.00 Build 0)  -->
<svg version="1.1" id="Layer_1" xmlns="http://www.w3.org/2000/svg" xmlns:xlink="http://www.w3.org/1999/xlink" x="0px" y="0px"
	 width="185.143px" height="54.039px" viewBox="0 0 185.143 54.039" enable-background="new 0 0 185.143 54.039"
	 xml:space="preserve">
<g id="Group_11033" transform="translate(-9126.346 5497.5)">
	<g id="Group_719" transform="translate(9126.346 -5497.5)">
		<g id="Group_524">
			<path id="Path_348" fill="#FFCC00" d="M0,0v54.039h37.826V0H0z M32.422,48.634H5.403V5.404h27.019V48.634z"/>
		</g>
	</g>
	<g id="Group_525" transform="translate(9175.146 -5492.067)">
		<path id="Path_349" fill="#FFFFFF" d="M14.08,18.808h-2.338c-3.063-4.325-6.1-8.625-9.136-13.488H2.58v13.488H0V0h2.342
			c3.063,4.3,6.1,8.57,9.109,13.406h0.053V0h2.581L14.08,18.808z"/>
	</g>
	<g id="Group_526" transform="translate(9190.084 -5492.067)">
		<path id="Path_350" fill="#FFFFFF" d="M5.267,11.361c0.752-2.471,1.5-4.756,2.177-7.66h0.054c0.752,2.9,1.425,5.189,2.123,7.66
			H5.267z M6.503-0.004l-6.5,18.808h2.8l1.638-5.132h5.67l1.478,5.132h3.6L9.197-0.004H6.503z"/>
	</g>
	<g id="Group_527" transform="translate(9203.358 -5492.067)">
		<path id="Path_351" fill="#FFFFFF" d="M4.944,18.808V2.523H0V0h13.113v2.523H8.168v16.284L4.944,18.808z"/>
	</g>
	<g id="Group_528" transform="translate(9217.52 -5492.067)">
		<path id="Path_352" fill="#FFFFFF" d="M0,18.808V0h3.2v18.808L0,18.808z"/>
	</g>
	<g id="Group_529" transform="translate(9222.679 -5492.391)">
		<path id="Path_353" fill="#FFFFFF" d="M7.981,16.768c-3.36,0-4.542-3.709-4.542-7.309c0-3.466,1.343-6.773,4.542-6.773
			s4.54,3.306,4.54,6.773C12.521,13.058,11.339,16.768,7.981,16.768z M7.981,19.453c4.917,0,7.98-4.378,7.98-9.994
			C15.961,4.191,12.574,0,7.981,0S0,4.19,0,9.459C0,15.075,3.065,19.453,7.981,19.453z"/>
	</g>
	<g id="Group_530" transform="translate(9240.6 -5492.067)">
		<path id="Path_354" fill="#FFFFFF" d="M14.08,18.808h-2.337c-3.062-4.325-6.1-8.625-9.136-13.488H2.579v13.488H0V0h2.339
			c3.062,4.3,6.1,8.57,9.108,13.406h0.054V0h2.579L14.08,18.808z"/>
	</g>
	<g id="Group_531" transform="translate(9255.538 -5492.067)">
		<path id="Path_355" fill="#FFFFFF" d="M5.268,11.361c0.753-2.471,1.505-4.756,2.177-7.66h0.053c0.753,2.9,1.425,5.189,2.123,7.66
			H5.268z M6.503-0.004l-6.5,18.808h2.8l1.639-5.132h5.661l1.478,5.132h3.6L9.19-0.004H6.503z"/>
	</g>
	<g id="Group_532" transform="translate(9271.661 -5492.067)">
		<path id="Path_356" fill="#FFFFFF" d="M0,0h3.2v16.282h6.364v2.525h-9.565L0,0z"/>
	</g>
	<g id="Group_543" transform="translate(9173.968 -5466.954)">
		<g id="Group_533" transform="translate(0)">
			<path id="Path_357" fill="#FFFFFF" d="M14.376,10.532v7.767c-1.695,0.715-3.509,1.107-5.348,1.156C3.493,19.455,0,15.155,0,9.62
				c0-5.131,3.493-9.618,9.136-9.618c1.635,0.008,3.228,0.514,4.568,1.451l-1.048,2.23c-1.041-0.624-2.227-0.966-3.44-0.993
				c-3.44,0-5.778,2.714-5.778,6.984c0,4.461,2.688,7.1,5.455,7.1c0.779,0.035,1.554-0.121,2.258-0.456v-5.78L14.376,10.532z"/>
		</g>
		<g id="Group_534" transform="translate(17.304 0.322)">
			<path id="Path_358" fill="#FFFFFF" d="M8.598,2.528H3.224v5.158h5.267v2.525H3.224v6.073h6.342v2.527H0V0.001h8.6L8.598,2.528z"
				/>
		</g>
		<g id="Group_535" transform="translate(27.864)">
			<path id="Path_359" fill="#FFFFFF" d="M7.98,16.768c-3.359,0-4.541-3.708-4.541-7.309c0-3.465,1.343-6.771,4.541-6.771
				s4.541,3.305,4.541,6.771C12.52,13.06,11.339,16.768,7.98,16.768z M7.98,19.453c4.918,0,7.98-4.38,7.98-9.994
				C15.96,4.192,12.574,0,7.98,0S0,4.192,0,9.459C0,15.073,3.063,19.453,7.98,19.453z"/>
		</g>
		<g id="Group_536" transform="translate(44.926)">
			<path id="Path_360" fill="#FFFFFF" d="M14.376,10.532v7.767c-1.695,0.715-3.508,1.107-5.347,1.156C3.494,19.455,0,15.155,0,9.62
				c0-5.131,3.494-9.618,9.137-9.618c1.635,0.008,3.228,0.514,4.568,1.451l-1.048,2.23c-1.041-0.624-2.227-0.966-3.44-0.993
				c-3.439,0-5.777,2.714-5.777,6.984c0,4.461,2.688,7.1,5.455,7.1c0.779,0.035,1.554-0.121,2.258-0.456v-5.78L14.376,10.532z"/>
		</g>
		<g id="Group_537" transform="translate(62.258 0.322)">
			<path id="Path_361" fill="#FFFFFF" d="M3.224,2.528h1.425C6.15,2.38,7.487,3.476,7.635,4.977C7.655,5.172,7.653,5.369,7.63,5.564
				c0,2.524-1.529,3.653-3.063,3.733C4.245,9.326,3.493,9.352,3.224,9.38L3.224,2.528z M11.392,18.811l-3.787-7.793
				c2.026-1.126,3.273-3.27,3.251-5.588c0-3.656-2.23-5.429-5.831-5.429H0v18.81h3.224v-7.094h1.451l3.036,7.094L11.392,18.811z"/>
		</g>
		<g id="Group_538" transform="translate(73.706 0.322)">
			<path id="Path_362" fill="#FFFFFF" d="M5.266,11.366c0.752-2.472,1.5-4.755,2.177-7.656h0.053c0.753,2.9,1.425,5.184,2.124,7.656
				H5.266z M6.501,0l-6.5,18.81h2.794l1.638-5.132h5.671l1.478,5.132h3.6L9.19,0H6.501z"/>
		</g>
		<g id="Group_539" transform="translate(89.908 0.322)">
			<path id="Path_363" fill="#FFFFFF" d="M5.023,0H0v18.81h3.224v-7.094h1.451C8.07,11.736,10.838,9,10.857,5.605
				c0-0.059,0-0.117-0.001-0.176C10.856,1.773,8.624,0,5.023,0z M4.568,9.3C4.236,9.326,3.449,9.352,3.224,9.378V2.532h1.451
				C6.173,2.393,7.5,3.495,7.639,4.993c0.018,0.191,0.015,0.384-0.008,0.575c0,2.519-1.532,3.649-3.062,3.728L4.568,9.3z"/>
		</g>
		<g id="Group_540" transform="translate(102.59 0.322)">
			<path id="Path_364" fill="#FFFFFF" d="M13.114,18.81H9.888V9.754H3.197v9.056h-3.2V0h3.2v7.229h6.691V0.053h3.226V18.81z"/>
		</g>
		<g id="Group_541" transform="translate(118.792 0.322)">
			<path id="Path_365" fill="#FFFFFF" d="M0,18.81V0h3.194v18.81H0z"/>
		</g>
		<g id="Group_542" transform="translate(124.113)">
			<path id="Path_366" fill="#FFFFFF" d="M12.387,3.734c-0.992-0.63-2.132-0.991-3.306-1.047c-3.277,0-5.669,2.714-5.669,6.984
				c0,4.461,2.634,7.1,5.75,7.1c1.142-0.005,2.259-0.331,3.224-0.942l0.888,2.339c-1.27,0.812-2.74,1.258-4.247,1.288
				c-5.537,0-9.029-4.3-9.029-9.835c0-5.131,3.467-9.618,9.082-9.618c1.554,0.05,3.059,0.554,4.328,1.451L12.387,3.734z"/>
		</g>
	</g>
</g>
<g>
</g>
<g>
</g>
<g>
</g>
<g>
</g>
<g>
</g>
<g>
</g>
<g>
</g>
<g>
</g>
<g>
</g>
<g>
</g>
<g>
</g>
<g>
</g>
<g>
</g>
<g>
</g>
<g>
</g>
</svg>
